<svg width="1440" height="112" viewBox="0 0 1440 112" fill="none" xmlns="http://www.w3.org/2000/svg">
<path fill-rule="evenodd" clip-rule="evenodd" d="M0 34.1458L47.8292 41.5605C95.6584 49.5931 191.317 65.0403 288.683 52.0646C384.342 39.0889 480 -2.92764 575.658 0.161816C671.317 2.63338 768.683 49.5931 864.342 62.5688C960 75.5445 1055.66 54.5362 1151.32 52.0646C1248.68 49.5931 1344.34 65.0403 1392.17 73.0729L1440 80.4876V112H1392.17C1344.34 112 1248.68 112 1151.32 112C1055.66 112 960 112 864.342 112C768.683 112 671.317 112 575.658 112C480 112 384.342 112 288.683 112C191.317 112 95.6584 112 47.8292 112H0V34.1458Z" fill="#D1EDDC"/>
</svg>
